<svg xmlns="http://www.w3.org/2000/svg" viewBox="0 0 400 480" width="100%" height="100%">
  <defs>
    <linearGradient id="gold-rim" x1="0%" y1="0%" x2="100%" y2="100%">
      <stop offset="0%" stop-color="#f3e5ab" />
      <stop offset="50%" stop-color="#d4af37" />
      <stop offset="100%" stop-color="#a8821a" />
    </linearGradient>
    <radialGradient id="bg-glow" cx="70%" cy="40%" r="60%">
      <stop offset="0%" stop-color="rgba(212, 175, 55, 0.22)" />
      <stop offset="60%" stop-color="rgba(20, 18, 25, 0.95)" />
      <stop offset="100%" stop-color="#08080a" />
    </radialGradient>
  </defs>
  <rect width="400" height="480" fill="url(#bg-glow)" />
  
  <!-- Subtle Scent Strip Smoke/Vapor -->
  <path d="M 280 260 Q 310 210 290 150 Q 270 90 320 50" fill="none" stroke="rgba(243, 229, 171, 0.18)" stroke-width="3" stroke-linecap="round" />
  <path d="M 285 265 Q 330 200 305 130 Q 280 60 335 30" fill="none" stroke="rgba(212, 175, 55, 0.12)" stroke-width="2" stroke-linecap="round" />

  <!-- Master Perfumer Chiaroscuro Profile -->
  <path d="M 80 480 L 80 380 C 80 340 110 320 140 315 L 160 310 L 165 260 C 145 240 135 210 135 170 C 135 110 165 75 210 75 C 255 75 285 110 285 170 C 285 210 275 240 255 260 L 260 310 L 280 315 C 310 320 340 340 340 380 L 340 480 Z" fill="#121116" stroke="url(#gold-rim)" stroke-width="1.8" />
  
  <!-- Suit Lapel Highlights -->
  <path d="M 140 315 L 180 400 L 180 480" fill="none" stroke="url(#gold-rim)" stroke-width="1.2" opacity="0.6" />
  <path d="M 280 315 L 240 400 L 240 480" fill="none" stroke="url(#gold-rim)" stroke-width="1.2" opacity="0.6" />
  
  <!-- Scent Strip held in hand silhouette -->
  <rect x="235" y="270" width="8" height="90" transform="rotate(-30 235 270)" fill="#ebe8e0" opacity="0.9" rx="2" />
  <circle cx="274" cy="202" r="5" fill="#d4af37" opacity="0.8" />
  
  <!-- Rim Light Facial Contours -->
  <path d="M 210 75 Q 260 85 282 140" fill="none" stroke="#f3e5ab" stroke-width="1.5" opacity="0.7" />
  <path d="M 265 245 Q 240 265 215 265" fill="none" stroke="#d4af37" stroke-width="1.2" opacity="0.5" />
</svg>
